<?xml version="1.0" encoding="UTF-8"?>
<svg width="60px" height="60px" viewBox="0 0 60 60" version="1.1" xmlns="http://www.w3.org/2000/svg" xmlns:xlink="http://www.w3.org/1999/xlink">
    <title>RMB Logo</title>
    <g id="Work-Order" stroke="none" stroke-width="1" fill="none" fill-rule="evenodd">
        <g id="Desktop-HD" transform="translate(-120.000000, -20.000000)">
            <g id="Group-3" transform="translate(120.000000, 20.000000)">
                <polygon id="Fill-1" fill="#111111" points="0 59.8151299 59.8151299 59.8151299 59.8151299 0 0 0"></polygon>
                <path d="M45.1628571,25.0846753 L49.6951948,22.770974 L29.9096104,12.6635065 L10.1239675,22.770974 L14.6522727,25.0846753 L29.9096104,17.2911039 L45.1628571,25.0846753 Z M17.1095649,26.3403896 L21.6377922,28.6540909 L29.9096104,24.4297403 L38.1773377,28.6540909 L42.7055844,26.3403896 L29.9096104,19.7978571 L17.1095649,26.3403896 Z M24.090974,29.9055195 L29.9096104,32.8784416 L35.7241558,29.9055195 L29.9096104,26.9366883 L24.090974,29.9055195 Z M29.9096104,35.3853896 L54.6015584,22.770974 L29.9096104,10.1522727 L5.21351299,22.770974 L29.9096104,35.3853896 Z M52.2880519,28.7255844 L54.6015584,29.9055195 L29.9096104,42.5241234 L5.21351299,29.9055195 L7.52698052,28.7255844 L29.9096104,40.1474026 L52.2880519,28.7255844 Z M29.9096104,47.2818506 L52.2880519,35.8642208 L54.6015584,37.0482468 L29.9096104,49.6627987 L5.21351299,37.0482468 L7.52698052,35.8642208 L29.9096104,47.2818506 Z" id="Fill-2" fill="#FFFFFF"></path>
            </g>
        </g>
    </g>
</svg>